<?xml version="1.0" encoding="UTF-8" standalone="no"?>
<svg width="195px" height="52px" viewBox="0 0 195 52" version="1.1" xmlns="http://www.w3.org/2000/svg" xmlns:xlink="http://www.w3.org/1999/xlink">
    <!-- Generator: Sketch 3.6.1 (26313) - http://www.bohemiancoding.com/sketch -->
    <title>CNX logo - white</title>
    <desc>Created with Sketch.</desc>
    <defs>
        <linearGradient x1="50%" y1="0%" x2="84.9968468%" y2="125.965848%" id="linearGradient-1">
            <stop stop-color="#EFF1F3" offset="0%"></stop>
            <stop stop-color="#CDCFD2" offset="100%"></stop>
        </linearGradient>
        <filter x="-50%" y="-50%" width="200%" height="200%" filterUnits="objectBoundingBox" id="filter-2">
            <feOffset dx="-1" dy="1" in="SourceAlpha" result="shadowOffsetOuter1"></feOffset>
            <feGaussianBlur stdDeviation="0.5" in="shadowOffsetOuter1" result="shadowBlurOuter1"></feGaussianBlur>
            <feColorMatrix values="0 0 0 0 0   0 0 0 0 0   0 0 0 0 0  0 0 0 0.173593184 0" in="shadowBlurOuter1" type="matrix" result="shadowMatrixOuter1"></feColorMatrix>
            <feMerge>
                <feMergeNode in="shadowMatrixOuter1"></feMergeNode>
                <feMergeNode in="SourceGraphic"></feMergeNode>
            </feMerge>
        </filter>
        <filter x="-50%" y="-50%" width="200%" height="200%" filterUnits="objectBoundingBox" id="filter-3">
            <feOffset dx="0" dy="2" in="SourceAlpha" result="shadowOffsetOuter1"></feOffset>
            <feGaussianBlur stdDeviation="1" in="shadowOffsetOuter1" result="shadowBlurOuter1"></feGaussianBlur>
            <feColorMatrix values="0 0 0 0 0   0 0 0 0 0   0 0 0 0 0  0 0 0 0.144466146 0" in="shadowBlurOuter1" type="matrix" result="shadowMatrixOuter1"></feColorMatrix>
            <feMerge>
                <feMergeNode in="shadowMatrixOuter1"></feMergeNode>
                <feMergeNode in="SourceGraphic"></feMergeNode>
            </feMerge>
        </filter>
    </defs>
    <g id="new-site" stroke="none" stroke-width="1" fill="none" fill-rule="evenodd">
        <g id="CNX/site_landing-2" transform="translate(-131.000000, -33.000000)" fill="url(#linearGradient-1)">
            <g id="Group" transform="translate(0.000000, 33.000000)">
                <g id="CNX-logo---white" transform="translate(130.000000, 0.000000)">
                    <path d="M77.3485904,30.4 C79.1185904,30.4 80.3185904,29.56 81.1585904,28.42 L80.0935904,27.835 C79.5235904,28.69 78.4885904,29.29 77.3485904,29.29 C75.1585904,29.29 73.4935904,27.595 73.4935904,25.225 C73.4935904,22.84 75.1585904,21.16 77.3485904,21.16 C78.4885904,21.16 79.5235904,21.775 80.0935904,22.615 L81.1435904,22.03 C80.3485904,20.905 79.1185904,20.05 77.3485904,20.05 C74.4685904,20.05 72.2035904,22.15 72.2035904,25.225 C72.2035904,28.3 74.4685904,30.4 77.3485904,30.4 L77.3485904,30.4 Z M84.469616,30.22 L84.469616,25.09 C84.799616,24.505 85.744616,23.935 86.434616,23.935 C86.614616,23.935 86.749616,23.95 86.884616,23.98 L86.884616,22.825 C85.894616,22.825 85.054616,23.38 84.469616,24.145 L84.469616,22.975 L83.344616,22.975 L83.344616,30.22 L84.469616,30.22 Z M88.5306416,33.055 C88.7406416,33.115 89.1156416,33.16 89.3556416,33.16 C90.3156416,33.145 91.0506416,32.74 91.4856416,31.69 L95.1156416,22.975 L93.8856416,22.975 L91.4856416,28.915 L89.0706416,22.975 L87.8556416,22.975 L90.8856416,30.295 L90.4056416,31.39 C90.1506416,31.99 89.8206416,32.155 89.3256416,32.155 C89.1456416,32.155 88.8756416,32.11 88.7106416,32.035 L88.5306416,33.055 Z M100.496667,30.4 C102.401667,30.4 103.721667,28.93 103.721667,26.59 C103.721667,24.235 102.401667,22.795 100.496667,22.795 C99.4766672,22.795 98.5766672,23.32 98.0516672,24.055 L98.0516672,22.975 L96.9266672,22.975 L96.9266672,32.98 L98.0516672,32.98 L98.0516672,29.125 C98.6366672,29.935 99.5066672,30.4 100.496667,30.4 L100.496667,30.4 Z M100.211667,29.395 C99.3266672,29.395 98.4416672,28.855 98.0516672,28.225 L98.0516672,24.955 C98.4416672,24.325 99.3266672,23.8 100.211667,23.8 C101.666667,23.8 102.536667,24.985 102.536667,26.59 C102.536667,28.195 101.666667,29.395 100.211667,29.395 L100.211667,29.395 Z M107.977693,30.4 C108.637693,30.4 109.042693,30.205 109.327693,29.935 L108.997693,29.095 C108.847693,29.26 108.547693,29.395 108.232693,29.395 C107.737693,29.395 107.497693,29.005 107.497693,28.465 L107.497693,23.965 L108.967693,23.965 L108.967693,22.975 L107.497693,22.975 L107.497693,20.995 L106.372693,20.995 L106.372693,22.975 L105.172693,22.975 L105.172693,23.965 L106.372693,23.965 L106.372693,28.705 C106.372693,29.785 106.912693,30.4 107.977693,30.4 L107.977693,30.4 Z M114.363718,30.4 C116.568718,30.4 117.948718,28.69 117.948718,26.59 C117.948718,24.49 116.568718,22.795 114.363718,22.795 C112.158718,22.795 110.778718,24.49 110.778718,26.59 C110.778718,28.69 112.158718,30.4 114.363718,30.4 L114.363718,30.4 Z M114.363718,29.395 C112.818718,29.395 111.948718,28.075 111.948718,26.59 C111.948718,25.12 112.818718,23.8 114.363718,23.8 C115.908718,23.8 116.763718,25.12 116.763718,26.59 C116.763718,28.075 115.908718,29.395 114.363718,29.395 L114.363718,29.395 Z M126.434744,30.22 L126.434744,25.135 C126.434744,23.56 125.639744,22.795 124.124744,22.795 C123.044744,22.795 122.054744,23.425 121.544744,24.025 L121.544744,22.975 L120.419744,22.975 L120.419744,30.22 L121.544744,30.22 L121.544744,24.925 C121.964744,24.34 122.804744,23.8 123.689744,23.8 C124.664744,23.8 125.309744,24.205 125.309744,25.48 L125.309744,30.22 L126.434744,30.22 Z M132.49077,30.4 C134.69577,30.4 136.07577,28.69 136.07577,26.59 C136.07577,24.49 134.69577,22.795 132.49077,22.795 C130.28577,22.795 128.90577,24.49 128.90577,26.59 C128.90577,28.69 130.28577,30.4 132.49077,30.4 L132.49077,30.4 Z M132.49077,29.395 C130.94577,29.395 130.07577,28.075 130.07577,26.59 C130.07577,25.12 130.94577,23.8 132.49077,23.8 C134.03577,23.8 134.89077,25.12 134.89077,26.59 C134.89077,28.075 134.03577,29.395 132.49077,29.395 L132.49077,29.395 Z M148.416795,30.22 L148.416795,24.985 C148.416795,23.53 147.711795,22.795 146.391795,22.795 C145.341795,22.795 144.366795,23.485 143.961795,24.145 C143.751795,23.395 143.121795,22.795 142.011795,22.795 C140.946795,22.795 139.971795,23.56 139.671795,24.025 L139.671795,22.975 L138.546795,22.975 L138.546795,30.22 L139.671795,30.22 L139.671795,24.925 C140.061795,24.34 140.841795,23.8 141.576795,23.8 C142.521795,23.8 142.911795,24.385 142.911795,25.3 L142.911795,30.22 L144.036795,30.22 L144.036795,24.91 C144.411795,24.34 145.206795,23.8 145.956795,23.8 C146.886795,23.8 147.291795,24.385 147.291795,25.3 L147.291795,30.22 L148.416795,30.22 Z M154.577821,30.4 C155.762821,30.4 156.737821,30.01 157.457821,29.29 L156.917821,28.555 C156.347821,29.14 155.507821,29.47 154.682821,29.47 C153.122821,29.47 152.162821,28.33 152.072821,26.965 L157.937821,26.965 L157.937821,26.68 C157.937821,24.505 156.647821,22.795 154.457821,22.795 C152.387821,22.795 150.887821,24.49 150.887821,26.59 C150.887821,28.855 152.432821,30.4 154.577821,30.4 L154.577821,30.4 Z M156.827821,26.14 L152.072821,26.14 C152.132821,25.03 152.897821,23.725 154.442821,23.725 C156.092821,23.725 156.812821,25.06 156.827821,26.14 L156.827821,26.14 Z M166.393846,30.22 L163.603846,26.5 L166.228846,22.975 L164.923846,22.975 L162.913846,25.735 L160.903846,22.975 L159.598846,22.975 L162.223846,26.5 L159.448846,30.22 L160.738846,30.22 L162.913846,27.25 L165.088846,30.22 L166.393846,30.22 Z M174.125898,30.22 L174.125898,20.215 L172.880898,20.215 L172.880898,30.22 L174.125898,30.22 Z M183.076923,30.22 L183.076923,25.135 C183.076923,23.56 182.281923,22.795 180.766923,22.795 C179.686923,22.795 178.696923,23.425 178.186923,24.025 L178.186923,22.975 L177.061923,22.975 L177.061923,30.22 L178.186923,30.22 L178.186923,24.925 C178.606923,24.34 179.446923,23.8 180.331923,23.8 C181.306923,23.8 181.951923,24.205 181.951923,25.48 L181.951923,30.22 L183.076923,30.22 Z M189.162949,30.4 C190.482949,30.4 191.262949,29.86 191.817949,29.14 L191.067949,28.45 C190.587949,29.095 189.972949,29.395 189.222949,29.395 C187.677949,29.395 186.717949,28.195 186.717949,26.59 C186.717949,24.985 187.677949,23.8 189.222949,23.8 C189.972949,23.8 190.587949,24.085 191.067949,24.745 L191.817949,24.055 C191.262949,23.335 190.482949,22.795 189.162949,22.795 C187.002949,22.795 185.547949,24.445 185.547949,26.59 C185.547949,28.75 187.002949,30.4 189.162949,30.4 L189.162949,30.4 Z M194.633974,30.37 C195.083974,30.37 195.458974,29.995 195.458974,29.545 C195.458974,29.095 195.083974,28.72 194.633974,28.72 C194.183974,28.72 193.808974,29.095 193.808974,29.545 C193.808974,29.995 194.183974,30.37 194.633974,30.37 L194.633974,30.37 Z" id="Cryptonomex-Inc." filter="url(#filter-2)"></path>
                    <g id="CNXLogo-colored" filter="url(#filter-3)">
                        <g id="Group">
                            <path d="M32.672826,30.8816371 L38.3781619,21.8729943 L40.9774927,26.5918072 L35.3232515,35.171467 L32.672826,30.8816371 Z" id="Path-10-Copy"></path>
                            <path d="M7.98661568,43.6653302 L13.4641618,35.0856704 L16.2912824,39.3755003 L10.6370412,47.9551601 L7.98661568,43.6653302 Z" id="Path-10"></path>
                            <path d="M11.763839,-0.85029304 L21.305371,3.75234338 L21.1307862,44.7657743 L11.763839,40.2382993 L11.763839,-0.85029304 Z" id="Rectangle-6" transform="translate(16.534605, 21.957741) rotate(32.000000) translate(-16.534605, -21.957741) "></path>
                            <path d="M33.2833644,27.1009957 L42.8248964,31.9037407 L42.8248964,46.4505649 L33.2833644,52.3973913 L33.2833644,27.1009957 Z" id="Rectangle-6-Copy" transform="translate(38.054130, 39.749194) rotate(32.000000) translate(-38.054130, -39.749194) "></path>
                            <path d="M21.1073701,12.3610106 L30.6489021,17.1637555 L30.6489021,47.7076693 L21.1073701,53.6544958 L21.1073701,12.3610106 Z" id="Rectangle-6-Copy-2" transform="translate(25.878136, 33.007753) rotate(32.000000) translate(-25.878136, -33.007753) "></path>
                        </g>
                    </g>
                </g>
            </g>
        </g>
    </g>
</svg>